<svg width="24" height="24" viewBox="0 0 24 24" fill="none" xmlns="http://www.w3.org/2000/svg">
<path d="M12 0.571442C5.68798 0.571442 0.571411 5.68801 0.571411 12C0.571411 18.312 5.68798 23.4286 12 23.4286C18.312 23.4286 23.4286 18.312 23.4286 12C23.4286 5.68801 18.312 0.571442 12 0.571442ZM12 2.22744C14.4897 2.22744 16.7623 3.15887 18.488 4.69144C17.22 6.36401 15.2937 7.47773 13.3634 8.23144C12.2707 6.24135 11.0461 4.3266 9.6977 2.50001C10.4518 2.31824 11.2248 2.22674 12.0006 2.22744H12ZM7.84227 3.15316C9.11655 5.05944 10.3508 6.82687 11.4783 8.82744C8.62684 9.5663 5.40455 10.0097 2.42798 10.0172C3.05541 6.97259 5.10055 4.44458 7.84227 3.15373V3.15316ZM19.572 5.82173C20.9841 7.54742 21.761 9.70564 21.7726 11.9354C19.512 11.4897 17.264 11.3732 14.9748 11.604C14.7177 10.9623 14.4057 10.3526 14.1068 9.69544C16.08 8.89944 18.1897 7.53716 19.572 5.82116V5.82173ZM12.272 10.3394C12.5166 10.8594 12.8 11.4114 13.0663 11.9754C9.88341 13.3789 6.4977 15.2543 4.74055 18.5423C3.0537 16.6756 2.15473 14.2285 2.23198 11.7137C5.64055 11.6977 8.98627 11.2714 12.272 10.3394ZM17.4366 13.004C18.8587 13.0043 20.275 13.1868 21.6508 13.5469C21.4387 14.8704 20.9565 16.1362 20.2343 17.2654C19.512 18.3947 18.5651 19.3632 17.4526 20.1109C16.928 17.7252 16.428 15.4423 15.544 13.1406C16.1705 13.0493 16.8028 13.0035 17.436 13.0034L17.4366 13.004ZM21.7017 13.1812C21.6948 13.2372 21.6886 13.292 21.6806 13.3469C21.6886 13.2914 21.6954 13.2366 21.7017 13.1812ZM13.736 13.5869C14.6366 15.9143 15.3434 18.4914 15.8177 20.9994C14.6104 21.5117 13.312 21.7749 12.0006 21.7732C9.82789 21.7763 7.71671 21.0521 6.00341 19.716C7.77313 16.8452 10.5143 14.6726 13.7354 13.5874L13.736 13.5869Z" fill="black"/>
</svg>
