<svg width="32" height="32" viewBox="0 0 32 32" fill="none" xmlns="http://www.w3.org/2000/svg">
<path d="M15.9999 1.28027C13.1799 1.28027 10.8799 3.58027 10.8799 6.40027C10.8799 9.22027 13.1799 11.5203 15.9999 11.5203C18.8199 11.5203 21.1199 9.22027 21.1199 6.40027C21.1199 3.58027 18.8199 1.28027 15.9999 1.28027ZM15.9999 2.56027C18.1274 2.56027 19.8399 4.27277 19.8399 6.40027C19.8399 8.52777 18.1274 10.2403 15.9999 10.2403C13.8724 10.2403 12.1599 8.52777 12.1599 6.40027C12.1599 4.27277 13.8724 2.56027 15.9999 2.56027ZM12.7899 12.7903C12.7574 12.7928 12.7274 12.7953 12.6949 12.8003H11.5199C10.3299 12.8003 9.3374 13.2153 8.6099 13.6753C7.8824 14.1353 7.4274 14.6153 7.2099 14.9028C6.0049 16.5028 3.3299 20.8903 3.3299 20.8903C3.3274 20.8928 3.3249 20.8953 3.3224 20.9003C2.8349 21.7353 2.5474 22.5478 2.5999 23.3778C2.6524 24.2053 3.0649 24.9803 3.7649 25.6778L6.7199 28.6353C7.5624 29.4778 8.8774 29.5103 9.8049 28.8128L9.9224 30.1378C9.9399 30.3678 10.0774 30.5703 10.2874 30.6703C10.4974 30.7678 10.7424 30.7478 10.9324 30.6128C11.1199 30.4778 11.2224 30.2528 11.1974 30.0228L10.2349 19.1428C10.2099 18.8778 10.0249 18.6553 9.7699 18.5853C9.5124 18.5128 9.2374 18.6078 9.0799 18.8228L6.3349 22.5853C6.1499 22.8403 6.1774 23.1928 6.3999 23.4153L9.1699 26.1853C9.6024 26.6178 9.6024 27.2978 9.1699 27.7303C8.7374 28.1628 8.0574 28.1628 7.6274 27.7303L4.6699 24.7728C4.1174 24.2203 3.9074 23.7678 3.8774 23.2928C3.8474 22.8203 4.0124 22.2578 4.4299 21.5453C4.4399 21.5278 7.1649 17.0878 8.2324 15.6728C8.2324 15.6728 8.2324 15.6728 8.2324 15.6703C8.3124 15.5653 8.7149 15.1228 9.2924 14.7578C9.8724 14.3928 10.6299 14.0803 11.5199 14.0803H12.3724L15.0724 20.5603L14.1024 23.1478C14.0249 23.3578 14.1399 23.5878 14.3599 23.6603L16.2174 24.2978C16.4374 24.3703 16.6774 24.2628 16.7574 24.0528L17.8949 21.0128C17.9724 20.8028 17.8599 20.5728 17.6399 20.5003L17.0399 20.2928L19.6274 14.0803H20.4799C21.3699 14.0803 22.1274 14.3928 22.7074 14.7578C23.2849 15.1228 23.6874 15.5653 23.7674 15.6703C23.7674 15.6728 23.7674 15.6728 23.7674 15.6728C24.8349 17.0878 27.5599 21.5278 27.5699 21.5453C27.9874 22.2578 28.1524 22.8203 28.1224 23.2928C28.0924 23.7678 27.8824 24.2203 27.3299 24.7728L24.3724 27.7303C23.9424 28.1628 23.2624 28.1628 22.8299 27.7303C22.3974 27.2978 22.3974 26.6178 22.8299 26.1853L25.5999 23.4153C25.8224 23.1928 25.8499 22.8403 25.6624 22.5853L22.9199 18.8228C22.7624 18.6078 22.4874 18.5128 22.2299 18.5853C21.9749 18.6553 21.7899 18.8778 21.7649 19.1428L20.8024 30.0228C20.7774 30.2528 20.8799 30.4778 21.0674 30.6128C21.2574 30.7478 21.5024 30.7678 21.7124 30.6703C21.9224 30.5703 22.0599 30.3678 22.0774 30.1378L22.1949 28.8128C23.1224 29.5103 24.4374 29.4778 25.2799 28.6353L28.2374 25.6778C28.9349 24.9803 29.3474 24.2053 29.3999 23.3778C29.4524 22.5478 29.1649 21.7353 28.6774 20.9003C28.6749 20.8953 28.6724 20.8928 28.6699 20.8903C28.6699 20.8903 25.9949 16.5028 24.7899 14.9028C24.5724 14.6153 24.1174 14.1353 23.3899 13.6753C22.6624 13.2153 21.6699 12.8003 20.4799 12.8003H12.8999C12.8624 12.7953 12.8274 12.7903 12.7899 12.7903ZM13.7599 14.0803H18.2399L15.9999 19.4553L13.7599 14.0803ZM9.1099 20.9553L9.4374 24.6403L7.6924 22.8978L9.1099 20.9553ZM22.8899 20.9553L24.3074 22.8978L22.5624 24.6403L22.8899 20.9553Z" fill="#BAC3D1"/>
</svg>
