<svg width="24" height="24" viewBox="0 0 24 24" fill="none" xmlns="http://www.w3.org/2000/svg">
<path d="M22 12C22 6.486 17.514 2 12 2C6.486 2 2 6.486 2 12C2 17.514 6.486 22 12 22C17.514 22 22 17.514 22 12ZM8.75 12.75C9.14 12.36 9.774 12.36 10.164 12.75L11 13.586L11 8C11 7.448 11.448 7 12 7C12.552 7 13 7.448 13 8L13 13.586L13.836 12.75C14.226 12.36 14.86 12.36 15.25 12.75C15.64 13.14 15.64 13.774 15.25 14.164L12.707 16.707C12.317 17.097 11.683 17.097 11.293 16.707L8.75 14.164C8.36 13.774 8.36 13.14 8.75 12.75Z" fill="#1C4220"/>
</svg>
