<svg width="24" height="24" viewBox="0 0 24 24" fill="none" xmlns="http://www.w3.org/2000/svg">
<g clip-path="url(#clip0_600_127)">
<path d="M11.9967 7.99815C9.7932 7.99815 7.99502 9.79633 7.99502 11.9998C7.99502 14.2032 9.7932 16.0014 11.9967 16.0014C14.2001 16.0014 15.9983 14.2032 15.9983 11.9998C15.9983 9.79633 14.2001 7.99815 11.9967 7.99815ZM23.9985 11.9998C23.9985 10.3427 24.0135 8.70061 23.9205 7.04652C23.8274 5.12526 23.3891 3.42014 21.9842 2.01522C20.5763 0.607291 18.8742 0.172005 16.9529 0.0789442C15.2958 -0.014117 13.6537 0.000892919 11.9997 0.000892919C10.3426 0.000892919 8.70049 -0.014117 7.0464 0.0789442C5.12514 0.172005 3.42002 0.610293 2.01509 2.01522C0.607169 3.42314 0.171883 5.12526 0.0788221 7.04652C-0.0142391 8.70361 0.000770849 10.3457 0.000770849 11.9998C0.000770849 13.6539 -0.0142391 15.2989 0.0788221 16.953C0.171883 18.8743 0.610171 20.5794 2.01509 21.9843C3.42302 23.3923 5.12514 23.8275 7.0464 23.9206C8.70349 24.0137 10.3456 23.9987 11.9997 23.9987C13.6567 23.9987 15.2988 24.0137 16.9529 23.9206C18.8742 23.8275 20.5793 23.3893 21.9842 21.9843C23.3921 20.5764 23.8274 18.8743 23.9205 16.953C24.0166 15.2989 23.9985 13.6569 23.9985 11.9998ZM11.9967 18.1568C8.58941 18.1568 5.83961 15.407 5.83961 11.9998C5.83961 8.59254 8.58941 5.84273 11.9967 5.84273C15.4039 5.84273 18.1537 8.59254 18.1537 11.9998C18.1537 15.407 15.4039 18.1568 11.9967 18.1568ZM18.4059 7.02851C17.6103 7.02851 16.9679 6.38609 16.9679 5.59057C16.9679 4.79504 17.6103 4.15262 18.4059 4.15262C19.2014 4.15262 19.8438 4.79504 19.8438 5.59057C19.844 5.77947 19.807 5.96656 19.7348 6.14112C19.6627 6.31569 19.5567 6.4743 19.4232 6.60787C19.2896 6.74145 19.131 6.84736 18.9564 6.91954C18.7819 6.99172 18.5948 7.02875 18.4059 7.02851Z" fill="black"/>
</g>
<defs>
<clipPath id="clip0_600_127">
<rect width="24" height="24" fill="white"/>
</clipPath>
</defs>
</svg>
