<svg width="38" height="39" viewBox="0 0 38 39" fill="none" xmlns="http://www.w3.org/2000/svg">
<path d="M18.75 5.4375C10.9955 5.4375 4.6875 11.7455 4.6875 19.5C4.6875 27.2545 10.9955 33.5625 18.75 33.5625C26.5045 33.5625 32.8125 27.2545 32.8125 19.5C32.8125 11.7455 26.5045 5.4375 18.75 5.4375ZM18.75 7.78125C21.7209 7.78125 24.4125 8.89819 26.4771 10.7109C26.2573 11.0176 25.9598 11.3884 25.4883 11.8462C24.4858 12.8167 22.8836 13.9839 20.4346 14.8857C18.7775 11.8233 17.1524 9.52075 16.0767 8.07422C16.9327 7.87738 17.8299 7.78125 18.75 7.78125ZM13.7695 8.87988C14.7308 10.1387 16.4429 12.4733 18.1641 15.5815C13.3987 16.845 9.0271 17.0052 7.2876 17.0098C8.0658 13.3889 10.5011 10.4088 13.7695 8.87988ZM28.0884 12.4321C29.5166 14.3227 30.4047 16.6619 30.4688 19.207C29.425 18.9736 27.887 18.7447 25.8911 18.731C24.852 18.7264 23.6755 18.7996 22.4121 18.9507C22.1191 18.2823 21.8033 17.6369 21.4966 17.0098C24.1241 16.0027 25.914 14.6752 27.0996 13.5308C27.5024 13.1371 27.8183 12.7755 28.0884 12.4321ZM19.2261 17.7056C19.4962 18.2503 19.7708 18.8088 20.0317 19.3901C15.0238 20.7772 11.4258 25.0252 9.8877 27.1538C8.11615 25.103 7.03125 22.4297 7.03125 19.5C7.03125 19.4496 7.03125 19.4039 7.03125 19.3535C8.61511 19.3718 13.6505 19.262 19.2261 17.7056ZM25.8911 21.0381C27.9831 21.0381 29.4296 21.3311 30.2856 21.5508C29.7409 24.6727 27.9785 27.3506 25.4883 29.0947C25.0214 26.2932 24.2523 23.629 23.3276 21.1846C24.2523 21.093 25.1266 21.0381 25.8911 21.0381ZM20.9473 21.5874C22.0001 24.2607 22.8836 27.195 23.3276 30.3032C21.9269 30.8937 20.3705 31.2188 18.75 31.2188C16.0629 31.2188 13.5818 30.317 11.6089 28.8018C12.8128 27.1538 16.3513 22.7684 20.9473 21.5874Z" fill="#FAFAFA"/>
</svg>
