<svg width="38" height="39" viewBox="0 0 38 39" fill="none" xmlns="http://www.w3.org/2000/svg">
<path d="M19.25 5.4375C11.4974 5.4375 5.1875 11.7474 5.1875 19.5C5.1875 27.2526 11.4974 33.5625 19.25 33.5625C27.0026 33.5625 33.3125 27.2526 33.3125 19.5C33.3125 11.7474 27.0026 5.4375 19.25 5.4375ZM19.25 7.78125C25.736 7.78125 30.9688 13.014 30.9688 19.5C30.9688 25.3915 26.6465 30.2359 20.9941 31.0768V22.9172H24.3312L24.8553 19.5275H20.9941V17.6758C20.9941 16.2684 21.4565 15.0185 22.7725 15.0185H24.8874V12.0613C24.5159 12.0109 23.7297 11.9011 22.2438 11.9011C19.1406 11.9011 17.3228 13.5394 17.3228 17.273V19.5275H14.1322V22.9172H17.3228V31.0471C11.7604 30.1297 7.53125 25.3278 7.53125 19.5C7.53125 13.014 12.764 7.78125 19.25 7.78125Z" fill="#FAFAFA"/>
</svg>
