<svg width="32" height="32" viewBox="0 0 32 32" fill="none" xmlns="http://www.w3.org/2000/svg">
<g clip-path="url(#clip0_2227_5873)">
<path d="M16.0008 1.2793C14.4183 1.2793 13.0033 1.7468 11.9608 2.5393C11.0933 3.1968 10.4833 4.0968 10.3008 5.1193H1.92082C0.86832 5.1193 0.000820312 5.9868 0.000820312 7.0393V17.7993C-0.00417969 17.8393 -0.00417969 17.8793 0.000820312 17.9193V28.7993C0.000820312 29.8518 0.86832 30.7193 1.92082 30.7193H30.0808C31.1333 30.7193 32.0008 29.8518 32.0008 28.7993V17.8593C32.0008 17.8393 32.0008 17.8193 32.0008 17.7993V7.0393C32.0008 5.9868 31.1333 5.1193 30.0808 5.1193H21.7008C21.5183 4.0968 20.9083 3.1968 20.0408 2.5393C18.9983 1.7468 17.5833 1.2793 16.0008 1.2793ZM16.0008 2.5593C17.3333 2.5593 18.4733 2.9618 19.2608 3.5593C19.8458 4.0043 20.2383 4.5293 20.4008 5.1193H11.6008C11.7633 4.5293 12.1558 4.0043 12.7408 3.5593C13.5283 2.9618 14.6683 2.5593 16.0008 2.5593ZM1.92082 6.3993H30.0808C30.4433 6.3993 30.7208 6.6768 30.7208 7.0393V17.7993C30.7183 17.8268 30.7183 17.8518 30.7208 17.8793V17.9193C30.7208 18.2818 30.4433 18.5593 30.0808 18.5593H19.2008C19.2008 17.5068 18.3333 16.6393 17.2808 16.6393H14.7208C13.6683 16.6393 12.8008 17.5068 12.8008 18.5593H1.92082C1.55832 18.5593 1.28082 18.2818 1.28082 17.9193C1.28582 17.8793 1.28582 17.8393 1.28082 17.7993V7.0393C1.28082 6.6768 1.55832 6.3993 1.92082 6.3993ZM14.7208 17.9193H17.2808C17.6433 17.9193 17.9208 18.1968 17.9208 18.5593V19.0793C17.9208 19.0993 17.9208 19.1193 17.9208 19.1393V19.1993C17.9158 19.2468 17.9158 19.2918 17.9208 19.3393V19.8393C17.9208 20.2018 17.6433 20.4793 17.2808 20.4793H14.7208C14.3583 20.4793 14.0808 20.2018 14.0808 19.8393V19.3193C14.0983 19.2343 14.0983 19.1443 14.0808 19.0593V18.5593C14.0808 18.1968 14.3583 17.9193 14.7208 17.9193ZM1.28082 19.7193C1.48332 19.7918 1.69582 19.8393 1.92082 19.8393H12.8008C12.8008 20.8918 13.6683 21.7593 14.7208 21.7593H17.2808C18.3333 21.7593 19.2008 20.8918 19.2008 19.8393H30.0808C30.3058 19.8393 30.5183 19.7918 30.7208 19.7193V28.7993C30.7208 29.1618 30.4433 29.4393 30.0808 29.4393H1.92082C1.55832 29.4393 1.28082 29.1618 1.28082 28.7993V19.7193Z" fill="#BAC3D1"/>
</g>
<defs>
<clipPath id="clip0_2227_5873">
<rect width="32" height="32" fill="white"/>
</clipPath>
</defs>
</svg>
