<svg width="20" height="20" viewBox="0 0 20 20" fill="none" xmlns="http://www.w3.org/2000/svg">
<path d="M20 10C20 4.486 15.514 -1.96089e-07 10 -4.37114e-07C4.486 -6.78139e-07 -1.96089e-07 4.486 -4.37114e-07 10C-6.78139e-07 15.514 4.486 20 10 20C15.514 20 20 15.514 20 10ZM6.75 10.75C7.14 10.36 7.774 10.36 8.164 10.75L9 11.586L9 6C9 5.448 9.448 5 10 5C10.552 5 11 5.448 11 6L11 11.586L11.836 10.75C12.226 10.36 12.86 10.36 13.25 10.75C13.64 11.14 13.64 11.774 13.25 12.164L10.707 14.707C10.317 15.097 9.683 15.097 9.293 14.707L6.75 12.164C6.36 11.774 6.36 11.14 6.75 10.75Z" fill="#1C4220"/>
</svg>
