<svg width="32" height="32" viewBox="0 0 32 32" fill="none" xmlns="http://www.w3.org/2000/svg">
<path d="M5.6402 2.55957C5.3352 2.61707 5.1152 2.88707 5.1202 3.19957V28.7996C5.1202 29.1521 5.4077 29.4396 5.7602 29.4396H9.6002V28.1596H6.4002V3.83957H25.6002V28.1596H17.2802V29.4396H26.2402C26.5927 29.4396 26.8802 29.1521 26.8802 28.7996V3.19957C26.8802 2.84707 26.5927 2.55957 26.2402 2.55957H5.7602C5.7402 2.55957 5.7202 2.55957 5.7002 2.55957C5.6802 2.55957 5.6602 2.55957 5.6402 2.55957ZM9.6002 10.2396V11.5196H22.4002V10.2396H9.6002ZM9.6002 14.0796V15.3596H22.4002V14.0796H9.6002ZM13.4402 19.1996C12.9452 19.1996 12.5377 19.4746 12.2402 19.8596C11.7952 19.7621 11.3152 19.7846 10.9202 20.0996C10.5277 20.4146 10.4252 20.8996 10.4402 21.3596C10.0252 21.5871 9.6827 21.9296 9.6002 22.4196C9.5202 22.9046 9.7377 23.3346 10.0402 23.6796C9.8602 24.1346 9.8427 24.6421 10.0802 25.0396C10.1227 25.1121 10.1852 25.1596 10.2402 25.2196V30.7196C10.2377 30.9621 10.3727 31.1846 10.5902 31.2946C10.8052 31.4046 11.0652 31.3846 11.2602 31.2396L13.4402 29.5996L15.6202 31.2396C15.8152 31.3846 16.0752 31.4046 16.2902 31.2946C16.5077 31.1846 16.6427 30.9621 16.6402 30.7196V25.2196C16.6952 25.1596 16.7577 25.1121 16.8002 25.0396C17.0777 24.5771 17.0177 24.1046 16.8402 23.6796C17.1427 23.3346 17.3602 22.9046 17.2802 22.4196C17.1977 21.9296 16.8552 21.5871 16.4402 21.3596C16.4552 20.8996 16.3527 20.4146 15.9602 20.0996C15.5652 19.7846 15.0852 19.7621 14.6402 19.8596C14.3502 19.4921 13.9427 19.1996 13.4402 19.1996ZM14.7202 19.9796C14.7477 19.9996 14.8002 20.0396 14.7802 20.0196L14.7602 20.0396C14.7477 20.0196 14.7327 19.9996 14.7202 19.9796ZM13.4402 20.4796C13.6452 20.4796 13.6652 20.5171 13.7202 20.6796C13.7527 20.7771 13.8077 20.8671 13.8802 20.9396C13.9127 20.9721 13.9527 21.0146 14.1202 21.0996C14.2877 21.1846 14.4277 21.1796 14.4602 21.1796C14.5777 21.1846 14.6977 21.1571 14.8002 21.0996C14.8952 21.0421 15.0677 21.0246 15.1602 21.0996C15.2677 21.1871 15.2677 21.2171 15.2002 21.4196C15.1752 21.4896 15.1602 21.5646 15.1602 21.6396C15.1602 21.7271 15.2052 21.7396 15.2402 21.8196C15.2627 22.1071 15.4752 22.3471 15.7602 22.3996C15.8602 22.4171 15.9827 22.5396 16.0002 22.6396C16.0177 22.7496 15.9552 22.8821 15.8602 22.9396C15.6752 23.0571 15.5602 23.2596 15.5602 23.4796V23.6796C15.5577 23.8146 15.6002 23.9496 15.6802 24.0596C15.6977 24.0846 15.7252 24.3396 15.7002 24.3796C15.6427 24.4746 15.5102 24.5371 15.4002 24.5196C15.1652 24.4771 14.9252 24.5696 14.7802 24.7596C14.7802 24.7671 14.7802 24.7721 14.7802 24.7796C14.7577 24.7971 14.7677 24.7946 14.7402 24.8196C14.7327 24.8271 14.7277 24.8121 14.7202 24.8196C14.5927 24.9396 14.5227 25.1046 14.5202 25.2796C14.5202 25.4496 14.5202 25.4521 14.3802 25.4996C14.3527 25.5121 14.3252 25.5246 14.3002 25.5396C14.2952 25.5371 14.3127 25.5396 14.2802 25.5396C14.2377 25.5396 14.1127 25.4921 14.0202 25.3996C13.8977 25.2796 13.7302 25.2146 13.5602 25.2196H13.3202C13.1502 25.2146 12.9827 25.2796 12.8602 25.3996C12.7552 25.5046 12.6402 25.5471 12.5002 25.4996C12.4227 25.4571 12.3602 25.3696 12.3602 25.2796C12.3602 25.1571 12.3002 24.9921 12.2202 24.8796C12.1477 24.7771 12.0827 24.7271 12.0402 24.6996C11.8927 24.5521 11.6852 24.4846 11.4802 24.5196C11.3702 24.5371 11.2377 24.4746 11.1802 24.3796C11.1052 24.2521 11.0802 24.2046 11.1802 24.0796C11.2702 23.9671 11.3202 23.8246 11.3202 23.6796V23.4796C11.3202 23.2596 11.2052 23.0571 11.0202 22.9396C10.9252 22.8821 10.8627 22.7496 10.8802 22.6396C10.8977 22.5396 11.0202 22.4171 11.1202 22.3996C11.4052 22.3471 11.6177 22.1071 11.6402 21.8196C11.6752 21.7396 11.7202 21.7271 11.7202 21.6396C11.7202 21.5646 11.7052 21.4896 11.6802 21.4196C11.6127 21.2171 11.6127 21.1871 11.7202 21.0996C11.8127 21.0246 11.9852 21.0421 12.0802 21.0996C12.2777 21.2146 12.5227 21.2146 12.7202 21.0996C12.7277 21.0996 12.7327 21.0996 12.7402 21.0996C12.7477 21.0921 12.7527 21.0871 12.7602 21.0796C12.7727 21.0746 12.7877 21.0671 12.8002 21.0596C12.9677 20.9896 13.1002 20.8521 13.1602 20.6796C13.1927 20.5796 13.3402 20.4796 13.4402 20.4796ZM11.5202 26.2796C11.6652 26.4646 11.8402 26.6121 12.0602 26.6996C12.0677 26.7071 12.0727 26.7121 12.0802 26.7196C12.5652 26.8821 13.0327 26.7396 13.4202 26.4996C13.4252 26.4971 13.4352 26.5021 13.4402 26.4996H13.5602C13.7877 26.6321 13.9902 26.8196 14.2802 26.8196C14.3902 26.8196 14.6102 26.7721 14.8002 26.6996C14.8102 26.6896 14.8277 26.6846 14.8402 26.6796C14.8527 26.6746 14.8677 26.6871 14.8802 26.6796V26.6596C15.0777 26.5771 15.2352 26.4521 15.3602 26.2996V29.4396L13.8202 28.2796C13.5952 28.1121 13.2852 28.1121 13.0602 28.2796L11.5202 29.4396V26.2796Z" fill="#BAC3D1"/>
</svg>
