<svg width="20" height="20" viewBox="0 0 20 20" fill="none" xmlns="http://www.w3.org/2000/svg">
<path d="M17.0707 2.92875C13.1657 -0.97625 6.83375 -0.97625 2.92875 2.92875C-0.97625 6.83375 -0.97625 13.1657 2.92875 17.0707C6.83375 20.9757 13.1657 20.9757 17.0707 17.0707C20.9757 13.1657 20.9757 6.83375 17.0707 2.92875ZM12.9998 12.9998C12.4478 12.9998 11.9998 12.5518 11.9998 11.9998V9.41375L8.12075 13.2928C7.73075 13.6828 7.09675 13.6828 6.70675 13.2928C6.31675 12.9028 6.31675 12.2687 6.70675 11.8787L10.5858 7.99975H7.99975C7.44775 7.99975 6.99975 7.55175 6.99975 6.99975C6.99975 6.44775 7.44775 5.99975 7.99975 5.99975H12.9998C13.5518 5.99975 13.9998 6.44775 13.9998 6.99975V11.9998C13.9998 12.5518 13.5518 12.9998 12.9998 12.9998Z" fill="#1C4220"/>
</svg>
