<svg width="38" height="39" viewBox="0 0 38 39" fill="none" xmlns="http://www.w3.org/2000/svg">
<path d="M13.4399 6.60938C9.27887 6.60938 5.85938 10.0243 5.85938 14.1899V24.8101C5.85938 28.9711 9.27429 32.3906 13.4399 32.3906H24.0601C28.2211 32.3906 31.6406 28.9757 31.6406 24.8101V14.1899C31.6406 10.0289 28.2257 6.60938 24.0601 6.60938H13.4399ZM13.4399 8.95312H24.0601C26.9577 8.95312 29.2969 11.2923 29.2969 14.1899V24.8101C29.2969 27.7077 26.9577 30.0469 24.0601 30.0469H13.4399C10.5423 30.0469 8.20312 27.7077 8.20312 24.8101V14.1899C8.20312 11.2923 10.5423 8.95312 13.4399 8.95312ZM25.6714 11.5166C25.0809 11.5166 24.6094 11.9881 24.6094 12.5786C24.6094 13.1691 25.0809 13.6406 25.6714 13.6406C26.2619 13.6406 26.7334 13.1691 26.7334 12.5786C26.7334 11.9881 26.2619 11.5166 25.6714 11.5166ZM18.75 12.4688C14.8819 12.4688 11.7188 15.6319 11.7188 19.5C11.7188 23.3681 14.8819 26.5312 18.75 26.5312C22.6181 26.5312 25.7812 23.3681 25.7812 19.5C25.7812 15.6319 22.6181 12.4688 18.75 12.4688ZM18.75 14.8125C21.3547 14.8125 23.4375 16.8953 23.4375 19.5C23.4375 22.1047 21.3547 24.1875 18.75 24.1875C16.1453 24.1875 14.0625 22.1047 14.0625 19.5C14.0625 16.8953 16.1453 14.8125 18.75 14.8125Z" fill="#FAFAFA"/>
</svg>
