<svg width="38" height="39" viewBox="0 0 38 39" fill="none" xmlns="http://www.w3.org/2000/svg">
<path d="M19.25 5.4375C13.5875 5.4375 8.69855 8.80664 6.46924 13.6406H9.10596C10.3694 11.4662 12.3103 9.7359 14.6357 8.7334C13.8575 10.0563 13.2213 11.7226 12.8047 13.6406H15.2583C16.1464 10.0792 17.7531 7.78125 19.25 7.78125C20.7469 7.78125 22.3536 10.0792 23.2417 13.6406H25.6953C25.2787 11.7226 24.6425 10.0563 23.8643 8.7334C26.1897 9.7359 28.1306 11.4662 29.394 13.6406H32.0308C29.8015 8.80664 24.9125 5.4375 19.25 5.4375ZM5.1875 15.9844L6.94531 23.0156H8.6665C8.6665 23.0156 9.88416 18.7584 9.91162 18.438H9.94824C9.96198 18.7264 11.1567 23.0156 11.1567 23.0156H12.8047L14.5625 15.9844H13.061C13.061 15.9844 12.0494 20.1912 12.0356 20.4521H11.999C11.967 20.1226 10.8271 15.9844 10.8271 15.9844H9.21582C9.21582 15.9844 7.87457 20.237 7.86084 20.4888C7.84253 20.1546 6.83545 15.9844 6.83545 15.9844H5.1875ZM14.5625 15.9844L16.3203 23.0156H18.0415C18.0415 23.0156 19.2592 18.7584 19.2866 18.438H19.3232C19.337 18.7264 20.5317 23.0156 20.5317 23.0156H22.1797L23.9375 15.9844H22.436C22.436 15.9844 21.4244 20.1912 21.4106 20.4521H21.374C21.342 20.1226 20.2021 15.9844 20.2021 15.9844H18.5908C18.5908 15.9844 17.2496 20.237 17.2358 20.4888C17.2175 20.1546 16.2104 15.9844 16.2104 15.9844H14.5625ZM23.9375 15.9844L25.6953 23.0156H27.4165C27.4165 23.0156 28.6342 18.7584 28.6616 18.438H28.6982C28.712 18.7264 29.9067 23.0156 29.9067 23.0156H31.5547L33.3125 15.9844H31.811C31.811 15.9844 30.7994 20.1912 30.7856 20.4521H30.749C30.717 20.1226 29.5771 15.9844 29.5771 15.9844H27.9658C27.9658 15.9844 26.6246 20.237 26.6108 20.4888C26.5925 20.1546 25.5854 15.9844 25.5854 15.9844H23.9375ZM6.46924 25.3594C8.69855 30.1934 13.5875 33.5625 19.25 33.5625C24.9125 33.5625 29.8015 30.1934 32.0308 25.3594H29.394C28.1306 27.5338 26.1897 29.2641 23.8643 30.2666C24.6425 28.9437 25.2787 27.2774 25.6953 25.3594H23.2417C22.3536 28.9208 20.7469 31.2188 19.25 31.2188C17.7531 31.2188 16.1464 28.9208 15.2583 25.3594H12.8047C13.2213 27.2774 13.8575 28.9437 14.6357 30.2666C12.3103 29.2641 10.3694 27.5338 9.10596 25.3594H6.46924Z" fill="#FAFAFA"/>
</svg>
